<svg version="1.1" id="Layer_1" xmlns="http://www.w3.org/2000/svg" xmlns:xlink="http://www.w3.org/1999/xlink" x="0px" y="0px"
	 width="100%" viewBox="0 0 1024 1024" enable-background="new 0 0 1024 1024" xml:space="preserve">
<path fill="#6A3EE7" opacity="1.000000" stroke="none" 
	d="
M333.833160,559.555054 
	C338.553955,580.652222 343.318329,601.739807 347.982025,622.849609 
	C351.858246,640.394775 355.616058,657.966125 359.700012,676.787292 
	C361.028076,672.660217 362.132477,669.680542 362.948059,666.623779 
	C371.204071,635.681335 379.435211,604.732117 387.628632,573.773010 
	C395.448090,544.226990 403.158325,514.652100 411.018921,485.117065 
	C419.839996,451.973083 428.825226,418.872742 437.642395,385.727692 
	C442.534882,367.336029 447.289886,348.907013 451.965332,330.458984 
	C452.932281,326.643616 454.365784,324.852753 458.873199,324.878784 
	C497.037201,325.099152 535.203064,325.006073 573.368347,324.993774 
	C576.226196,324.992859 578.239746,324.739258 579.243774,328.924042 
	C585.763977,356.101654 592.820007,383.150696 599.381226,410.625153 
	C596.703979,412.514252 593.888855,413.606262 592.078064,415.607178 
	C587.526855,420.635956 583.572876,426.199951 579.121216,431.325073 
	C568.778748,443.232117 558.274353,454.998444 547.870972,466.852875 
	C547.115051,467.714233 546.786621,468.954895 546.019348,469.801605 
	C538.672485,477.909149 531.273865,485.969849 523.890076,494.043945 
	C520.596008,482.465576 517.302002,470.887207 513.699402,458.224335 
	C505.783661,488.239471 498.179199,517.071716 490.578003,545.904907 
	C490.246887,547.160889 489.945526,548.424683 488.922363,549.882812 
	C486.462585,551.049072 484.256042,551.629883 483.040741,553.055542 
	C478.731750,558.110474 474.986206,563.650696 470.615479,568.646851 
	C461.558014,579.000671 452.057922,588.969727 443.080566,599.390503 
	C436.042511,607.560120 429.701569,616.327942 422.721710,624.550598 
	C411.459747,637.817749 399.843353,650.783508 388.529388,664.007263 
	C373.752777,681.278198 359.255127,698.788696 344.401093,715.992004 
	C324.708344,738.799194 304.787201,761.409180 284.964233,784.103943 
	C281.975098,772.048035 278.955383,759.999634 276.003693,747.934509 
	C271.104279,727.908203 266.226196,707.876526 261.383118,687.836487 
	C258.562531,676.165222 255.827530,664.473389 253.458679,652.358521 
	C255.535263,650.676392 257.492401,649.672180 258.822449,648.127930 
	C262.047455,644.383423 264.846252,640.273071 268.053833,636.512329 
	C285.025024,616.614014 302.075287,596.783264 319.084778,576.917664 
	C324.023590,571.149597 328.918274,565.343628 333.833160,559.555054 
z"/>
<path fill="#7D39E8" opacity="1.000000" stroke="none" 
	d="
M655.113708,632.957397 
	C659.080444,648.430481 663.042969,663.904663 667.027405,679.373230 
	C667.215881,680.104980 667.599060,680.786560 668.212341,682.264709 
	C671.597046,667.408752 674.867615,653.396362 677.969849,639.346741 
	C681.501648,623.351318 684.859192,607.317566 688.344360,591.311768 
	C689.407959,586.427124 690.642883,581.579895 692.301331,576.427734 
	C694.318787,575.798584 696.348816,575.963623 697.265320,575.032654 
	C702.734619,569.476501 708.189697,563.870911 713.194031,557.900085 
	C723.077576,546.107788 732.466553,533.898865 742.425598,522.172668 
	C753.474792,509.162964 765.076843,496.623749 776.174255,483.653839 
	C789.395081,468.202209 802.203857,452.397156 815.484558,436.998260 
	C819.053284,432.860382 823.688110,429.641968 827.833496,426.001465 
	C825.137207,437.857239 822.571350,449.744507 819.719482,461.562744 
	C812.215332,492.659790 804.583313,523.725952 797.008972,554.806091 
	C791.586304,577.056885 786.170288,599.309387 780.758911,621.563049 
	C774.505493,647.279236 768.249634,672.994934 762.015564,698.715820 
	C757.271729,718.288086 752.587097,737.874634 747.827698,757.443115 
	C741.080688,785.183594 734.289185,812.913208 727.428833,841.007446 
	C723.374390,841.007446 719.231812,841.007629 715.089233,841.007446 
	C683.770203,841.006226 652.450500,840.900757 621.133118,841.127747 
	C616.952087,841.158081 615.394470,839.705200 614.432739,836.012024 
	C608.366211,812.715210 602.185974,789.447754 595.996033,766.183228 
	C591.520813,749.363586 586.967834,732.564575 582.469238,715.751099 
	C582.217102,714.808716 582.144531,713.818237 582.283508,712.352417 
	C588.936035,705.388855 595.669067,699.245850 601.567078,692.384949 
	C611.575134,680.743164 620.943481,668.553955 630.801880,656.779968 
	C636.750916,649.674927 643.018311,642.826050 649.372803,636.078918 
	C650.791687,634.572449 653.174622,633.973938 655.113708,632.957397 
z"/>
<path fill="#713CE8" opacity="1.000000" stroke="none" 
	d="
M284.980591,784.513306 
	C304.787201,761.409180 324.708344,738.799194 344.401093,715.992004 
	C359.255127,698.788696 373.752777,681.278198 388.529388,664.007263 
	C399.843353,650.783508 411.459747,637.817749 422.721710,624.550598 
	C429.701569,616.327942 436.042511,607.560120 443.080566,599.390503 
	C452.057922,588.969727 461.558014,579.000671 470.615479,568.646851 
	C474.986206,563.650696 478.731750,558.110474 483.040741,553.055542 
	C484.256042,551.629883 486.462585,551.049072 488.598083,550.110718 
	C485.458801,563.813110 481.976715,577.496216 478.405090,591.155945 
	C469.615448,624.771973 460.862793,658.398071 451.948730,691.981262 
	C442.568878,727.319397 433.011749,762.610474 423.546906,797.926086 
	C420.017548,811.095154 416.399200,824.243103 413.132538,837.477478 
	C412.469360,840.164246 411.538025,841.041748 408.914642,841.036987 
	C372.438751,840.970886 335.962769,840.972229 299.486786,840.945862 
	C299.169067,840.945679 298.851471,840.792542 297.949615,840.560486 
	C293.673340,822.191895 289.335144,803.557251 284.980591,784.513306 
z"/>
<path fill="#763BE8" opacity="1.000000" stroke="none" 
	d="
M828.012939,425.649628 
	C823.688110,429.641968 819.053284,432.860382 815.484558,436.998260 
	C802.203857,452.397156 789.395081,468.202209 776.174255,483.653839 
	C765.076843,496.623749 753.474792,509.162964 742.425598,522.172668 
	C732.466553,533.898865 723.077576,546.107788 713.194031,557.900085 
	C708.189697,563.870911 702.734619,569.476501 697.265320,575.032654 
	C696.348816,575.963623 694.318787,575.798584 692.484863,576.071411 
	C693.977661,567.277588 695.756836,558.545532 697.606689,549.828430 
	C701.723267,530.429321 705.796875,511.020630 710.035217,491.648071 
	C714.098206,473.076691 718.421875,454.562408 722.495789,435.993378 
	C728.067932,410.595703 733.496887,385.166595 739.018677,359.757843 
	C741.330261,349.121124 743.625854,338.478271 746.211975,327.907532 
	C746.505066,326.709473 748.636353,325.132538 749.921509,325.126740 
	C783.708191,324.974060 817.495605,325.005646 852.412659,325.005646 
	C851.106323,330.849701 849.965027,336.277222 848.675537,341.669312 
	C842.070007,369.292938 835.427429,396.907715 828.779419,424.521149 
	C828.709839,424.810394 828.393616,425.040253 828.012939,425.649628 
z"/>
<path fill="#5B43E6" opacity="1.000000" stroke="none" 
	d="
M221.166382,518.001648 
	C217.112793,501.443878 213.022736,484.894928 209.014648,468.326172 
	C203.704453,446.374786 198.449783,424.409943 193.187057,402.447113 
	C187.849472,380.171783 182.508942,357.897125 177.228516,335.608215 
	C176.445129,332.301544 175.985077,328.918274 175.325073,325.293823 
	C210.992722,325.293823 246.711563,325.293823 282.792450,325.293823 
	C289.206665,355.115784 295.628876,384.978271 302.054596,414.840027 
	C302.361572,416.266510 302.700043,417.686279 302.792175,419.728882 
	C300.701233,423.444672 299.169067,426.804749 296.922791,429.588593 
	C289.443909,438.857330 281.808899,448.005219 274.050751,457.042328 
	C258.207458,475.497375 242.248184,493.852905 226.327026,512.241028 
	C224.639740,514.189758 222.888153,516.082764 221.166382,518.001648 
z"/>
<path fill="#6340E6" opacity="1.000000" stroke="none" 
	d="
M221.111328,518.252686 
	C222.888153,516.082764 224.639740,514.189758 226.327026,512.241028 
	C242.248184,493.852905 258.207458,475.497375 274.050751,457.042328 
	C281.808899,448.005219 289.443909,438.857330 296.922791,429.588593 
	C299.169067,426.804749 300.701233,423.444672 302.845306,420.142090 
	C306.069397,432.683716 309.132111,445.404968 311.915497,458.187103 
	C315.099030,472.806885 317.943420,487.500305 321.100189,502.126160 
	C325.112152,520.714050 329.288513,539.266418 333.407867,557.831055 
	C333.476868,558.142090 333.721863,558.414001 333.858948,559.129639 
	C328.918274,565.343628 324.023590,571.149597 319.084778,576.917664 
	C302.075287,596.783264 285.025024,616.614014 268.053833,636.512329 
	C264.846252,640.273071 262.047455,644.383423 258.822449,648.127930 
	C257.492401,649.672180 255.535263,650.676392 253.514847,651.964355 
	C248.772614,633.547913 244.403030,615.087524 239.976837,596.640747 
	C236.911270,583.864441 233.712997,571.119873 230.674545,558.337219 
	C227.715363,545.888000 224.884079,533.408386 221.864807,520.334656 
	C221.563995,519.471252 221.375351,519.230713 221.167023,519.005615 
	C221.130127,518.838379 221.093216,518.671082 221.111328,518.252686 
z"/>
<path fill="#713CE8" opacity="1.000000" stroke="none" 
	d="
M523.937866,494.452515 
	C531.273865,485.969849 538.672485,477.909149 546.019348,469.801605 
	C546.786621,468.954895 547.115051,467.714233 547.870972,466.852875 
	C558.274353,454.998444 568.778748,443.232117 579.121216,431.325073 
	C583.572876,426.199951 587.526855,420.635956 592.078064,415.607178 
	C593.888855,413.606262 596.703979,412.514252 599.447144,411.005188 
	C604.701782,430.344330 609.636963,449.670502 614.421265,469.033997 
	C618.707153,486.380615 622.826904,503.768219 626.749146,521.672180 
	C626.065552,522.481812 625.558472,522.678345 625.253357,523.043518 
	C612.626160,538.158142 600.058289,553.322571 587.378357,568.392700 
	C583.961670,572.453491 580.098267,576.136414 576.638184,580.163208 
	C568.988159,589.066223 561.464050,598.077515 553.888611,607.044678 
	C548.958252,589.132019 543.976379,571.233398 539.111633,553.302917 
	C534.055481,534.667114 529.106445,516.002136 524.140991,497.341888 
	C523.932129,496.556763 524.030457,495.689911 523.937866,494.452515 
z"/>
<path fill="#763BE8" opacity="1.000000" stroke="none" 
	d="
M553.937500,607.446899 
	C561.464050,598.077515 568.988159,589.066223 576.638184,580.163208 
	C580.098267,576.136414 583.961670,572.453491 587.378357,568.392700 
	C600.058289,553.322571 612.626160,538.158142 625.253357,523.043518 
	C625.558472,522.678345 626.065552,522.481812 626.797607,522.083252 
	C631.397278,538.374695 635.722107,554.778015 639.946533,571.207153 
	C644.994812,590.840271 649.961060,610.494568 654.939209,630.145691 
	C655.098694,630.775208 654.998840,631.470459 655.066772,632.546265 
	C653.174622,633.973938 650.791687,634.572449 649.372803,636.078918 
	C643.018311,642.826050 636.750916,649.674927 630.801880,656.779968 
	C620.943481,668.553955 611.575134,680.743164 601.567078,692.384949 
	C595.669067,699.245850 588.936035,705.388855 582.243286,711.947083 
	C578.301025,699.124084 574.567139,686.242493 571.115417,673.285767 
	C565.311340,651.498718 559.686646,629.663818 553.937500,607.446899 
z"/>
<path fill="#713CE8" opacity="1.000000" stroke="none" 
	d="
M581.955566,276.112579 
	C572.021667,271.281311 565.189392,263.268372 559.603027,254.062103 
	C557.834106,251.146866 556.543274,247.941528 555.379150,244.438339 
	C557.607056,242.716873 559.742920,241.680695 561.333679,240.096970 
	C585.997314,215.542267 610.601807,190.928116 635.171082,166.278961 
	C636.660583,164.784653 637.740356,162.881958 639.010742,161.169312 
	C652.407349,166.216522 662.691711,174.964966 669.773071,187.776657 
	C651.489319,206.243622 633.472534,224.199371 615.381836,242.080246 
	C610.779602,246.629089 605.766113,250.768448 601.254944,255.401093 
	C594.673157,262.160095 588.374756,269.195190 581.955566,276.112579 
z"/>
<path fill="#7D39E8" opacity="1.000000" stroke="none" 
	d="
M464.109650,184.955933 
	C470.144318,192.514221 473.656250,201.446518 474.719299,210.716537 
	C475.873230,220.778519 476.006348,231.223679 472.467621,241.072327 
	C464.322327,263.741394 448.774384,278.761963 425.073059,283.842468 
	C407.509827,287.607269 390.518433,285.088470 375.337036,274.183075 
	C385.206909,263.728729 394.971771,253.815903 404.772766,243.938950 
	C411.170898,237.491272 417.623291,231.097473 424.047974,224.676147 
	C430.929688,217.798019 437.785095,210.893387 444.693420,204.042114 
	C451.137177,197.651505 457.635376,191.315796 464.109650,184.955933 
z"/>
<path fill="#7D39E8" opacity="1.000000" stroke="none" 
	d="
M582.126892,276.421692 
	C588.374756,269.195190 594.673157,262.160095 601.254944,255.401093 
	C605.766113,250.768448 610.779602,246.629089 615.381836,242.080246 
	C633.472534,224.199371 651.489319,206.243622 669.820190,188.133820 
	C683.992126,208.913040 681.553833,242.152451 665.182068,261.691925 
	C654.491882,274.450562 641.218323,282.192963 625.551514,284.610626 
	C612.493896,286.625580 598.880310,285.952240 586.675476,278.928497 
	C585.262695,278.115448 583.759521,277.459534 582.126892,276.421692 
z"/>
<path fill="#6340E6" opacity="1.000000" stroke="none" 
	d="
M638.663696,160.987671 
	C637.740356,162.881958 636.660583,164.784653 635.171082,166.278961 
	C610.601807,190.928116 585.997314,215.542267 561.333679,240.096970 
	C559.742920,241.680695 557.607056,242.716873 555.373657,244.076355 
	C553.689331,239.529694 551.617920,234.988571 551.145386,230.286789 
	C548.554688,204.505249 556.987610,182.978729 578.110901,167.619354 
	C587.565613,160.744553 598.792480,157.145721 610.857239,156.952347 
	C620.245544,156.801880 629.480652,157.250732 638.663696,160.987671 
z"/>
<path fill="#6A3EE7" opacity="1.000000" stroke="none" 
	d="
M420.003448,157.167007 
	C429.411133,158.666412 438.373352,161.379761 446.574768,167.324249 
	C445.181335,170.077499 443.811066,172.600525 441.867676,174.553162 
	C416.512970,200.029175 391.097321,225.444717 365.627563,250.805725 
	C363.292603,253.130692 360.480957,254.976898 357.890656,257.045410 
	C352.593842,249.828461 348.824066,241.984802 348.153809,232.232407 
	C349.779327,229.949066 351.197205,228.318375 352.720764,226.793243 
	C373.863678,205.628311 395.047333,184.503891 416.124481,163.273727 
	C417.784058,161.602097 418.727295,159.219299 420.003448,157.167007 
z"/>
<path fill="#713CE8" opacity="1.000000" stroke="none" 
	d="
M357.940765,257.397827 
	C360.480957,254.976898 363.292603,253.130692 365.627563,250.805725 
	C391.097321,225.444717 416.512970,200.029175 441.867676,174.553162 
	C443.811066,172.600525 445.181335,170.077499 446.895691,167.486572 
	C452.244995,172.197800 457.516571,177.242065 463.039551,182.783875 
	C463.448456,183.536392 463.633240,183.769775 463.845276,183.981583 
	C463.895325,184.142334 463.945374,184.303101 464.052521,184.709900 
	C457.635376,191.315796 451.137177,197.651505 444.693420,204.042114 
	C437.785095,210.893387 430.929688,217.798019 424.047974,224.676147 
	C417.623291,231.097473 411.170898,237.491272 404.772766,243.938950 
	C394.971771,253.815903 385.206909,263.728729 375.189270,273.865845 
	C369.298187,268.653656 363.644531,263.201935 357.940765,257.397827 
z"/>
<path fill="#5B43E6" opacity="1.000000" stroke="none" 
	d="
M419.539612,157.095642 
	C418.727295,159.219299 417.784058,161.602097 416.124481,163.273727 
	C395.047333,184.503891 373.863678,205.628311 352.720764,226.793243 
	C351.197205,228.318375 349.779327,229.949066 348.129639,231.816833 
	C347.965820,223.677628 346.730011,215.015320 348.267059,206.876663 
	C351.378876,190.399307 360.450745,176.890350 374.288666,167.450851 
	C384.259888,160.649002 395.661713,156.699371 408.109192,156.985657 
	C411.763062,157.069687 415.420135,157.015259 419.539612,157.095642 
z"/>
<path fill="#7D39E8" opacity="1.000000" stroke="none" 
	d="
M463.873840,183.722351 
	C463.633240,183.769775 463.448456,183.536392 463.179474,183.088715 
	C463.346161,183.085037 463.624298,183.274078 463.873840,183.722351 
z"/>
<path fill="#5B43E6" opacity="1.000000" stroke="none" 
	d="
M221.144348,519.269104 
	C221.375351,519.230713 221.563995,519.471252 221.848938,519.925171 
	C221.683838,519.926331 221.402740,519.729431 221.144348,519.269104 
z"/>
</svg>